<?xml version="1.0" encoding="UTF-8"?>
<!-- Generator: Adobe Illustrator 22.0.1, SVG Export Plug-In . SVG Version: 6.00 Build 0)  -->
<svg xmlns="http://www.w3.org/2000/svg" xmlns:xlink="http://www.w3.org/1999/xlink" id="Layer_1" x="0px" y="0px" viewBox="0 0 420.5 401.2" style="enable-background:new 0 0 420.5 401.2;" xml:space="preserve">
<style type="text/css">
	.st0{fill:#450E46;}
	.st1{fill:#F3B51B;}
	.st2{fill:#109E59;}
	.st3{fill:#557EBF;}
	.st4{fill:none;stroke:#450E46;stroke-width:1.5;stroke-linecap:round;stroke-linejoin:round;stroke-miterlimit:10;}
	.st5{fill:none;stroke:#DC4638;stroke-width:1.5;stroke-linecap:round;stroke-linejoin:round;stroke-miterlimit:10;}
	.st6{fill:none;stroke:#557EBF;stroke-width:1.5;stroke-linecap:round;stroke-linejoin:round;stroke-miterlimit:10;}
	.st7{fill:none;stroke:#109E59;stroke-width:1.5;stroke-linecap:round;stroke-linejoin:round;stroke-miterlimit:10;}
	.st8{fill:none;stroke:#F3B51B;stroke-width:1.5;stroke-linecap:round;stroke-linejoin:round;stroke-miterlimit:10;}
</style>
<g>
	<g>
		<g>
			<path class="st0" d="M128.4,375.8c12.9,10.1,53.9-6.9,45.8,18.5c-2.4,7.4-17.1,6.5-23.9,5.6c-9.5-1.2-18.7-5-26.8-10     c0,3.1,0.2,4.9,0.3,8.9c0,0-6.8-0.1-10.5-0.3c-2.7-0.1-13.4-0.1-13.4-0.1s0.7-17.2,0.7-21.4l0-1.2c0.3,0,0.6,0,1,0     c5.4-0.1,14.4-0.1,18.3-0.1c1.9,0,5.4-0.1,8.5-0.3L128.4,375.8z"></path>
			<path class="st0" d="M27.8,356.4c1.8,8.3,5.6,15.7,2.4,24.4c-2.4,6.5-9.6,9.4-15.2,5.2C8.1,381,5.8,373.3,5.8,365     c0-5.7,0-11.1,1.5-16.7c1.1-3.9,4-8.8,4.2-12.8c-2.6,0.8-5.5,1.1-8,1.7c-0.7-7.7-3.4-15.4-2.7-23.2c5.4-1.3,14.6-4.4,19.4-3.5     l0.5-0.1c0.6,5.3,3.1,11.3,4.4,16c1,3.5,1.6,7.3,2.6,10.8l-1.1,0.4C24.4,343.7,26.5,350.2,27.8,356.4"></path>
			<path class="st1" d="M323.8,312.3l-0.4,0c0-1.7,0.1-3.5,0.2-5.2c1-22.4,2.4-48.4,2.5-71.1h0c0,36.8,38.1,70.8,73.7,71.2     c0.1,1.1,0,2.2-0.1,3.3c-0.6,5.3-3,11.3-4.4,16c-1,3.5-1.5,7.3-2.6,10.8c-0.3,1.2-0.7,2.3-1.2,3.4c-2.1,4.8-3.7,3-8.8,2.3     c-5.1-0.7-10.2-0.9-15.3-2.5c-8.8-2.7-18.4-7.8-26.3-12.6C338.8,326.6,323.8,314.7,323.8,312.3"></path>
			<path class="st1" d="M293.6,232.2h32.5c0,1.2,0,2.5,0,3.8c-0.1,22.8-1.5,48.7-2.5,71.1c-0.1,1.7-0.1,3.5-0.2,5.2     c-0.6,21,0.7,41.9,0.7,62.9l-1.9,0.7c-0.8,0-1.9,0-3.2,0c-5.4-0.1-14.4-0.1-18.3-0.1c-3.1,0-10.5-0.3-13.2-0.5c-0.6,0-1,0-1,0     h-0.5c1.3-26.9,0.9-46.6,2.7-81.2c0.7-14.5,1.7-28.9,2.9-43.4c0.4-4.9,2.1-18.3,2.1-18.3V232.2z"></path>
			<path class="st2" d="M301.8,147c3.1,9.2,4.7,19.2,4.7,30c0,15.1-3.7,29.3-10.1,41.8l-0.2-0.1c-1.4-0.1-2.5-1.6-3.3-2.8     c-1.8-2.9-1-4.4-0.8-7.4c0.1-2.8-0.7-2.3-2.8-3c-2.8-1-3.3-2.4-4.7-5c-2.4-4.6-8.3-6.2-12.8-3.4c-4.4,2.8-8.9,7.6-14.8,5.5     l-0.8,0.1c-3.1-5-9.4-9.6-13.9-11.9c4.8,0.1,25.2-1.1,15.4-9.1c-4.3-3.5-18-1.1-18.9-1l-0.1-0.1c10.1-10.1,17.7-21.2,26.5-32.7     c1.1-1.5,2.5-3.4,4-5.6l1.1,0.2c2.6,1.5,5.5,1.2,7.3,4.2c1.9,3.4,0.8,7.8,5.3,9.4c3.8,1.3,5.6-1.7,8.3-3.9     c3.1-2.7,6.7-3.1,10.2-5.1L301.8,147z"></path>
			<path class="st3" d="M301.8,147l-0.6,0.2c-3.4,1.9-7,2.4-10.2,5.1c-2.6,2.3-4.4,5.3-8.3,3.9c-4.5-1.6-3.4-6-5.3-9.4     c-1.7-3-4.7-2.8-7.3-4.2l-1.1-0.2c5.4-7.8,12.3-18.8,15.2-24.9C292.3,126.2,298.1,136.1,301.8,147"></path>
			<path class="st3" d="M214.7,204l1.4-0.3c1.4-1.4,2.7-2.8,4.1-4.2l0.2,0.2c8.4,8.9,17.9,25.2,31.5,17.7c7.5-4.2,7.4-9.6,4.3-14.5     l0.8-0.1c5.9,2.1,10.4-2.8,14.8-5.5c4.5-2.8,10.5-1.2,12.8,3.4c1.4,2.6,1.9,4,4.7,5c2.1,0.8,2.9,0.2,2.8,3c-0.2,3-1,4.5,0.8,7.4     c0.8,1.2,1.8,2.7,3.3,2.8l0.2,0.1c-2.4,4.7-5.3,9.2-8.5,13.4c-5.1,6.7-11.1,12.6-17.8,17.7c-2-2.6-4.4-6.4-8.5-8.3     c-7.3-3.3-13.2,4.8-20.4,1.8c-3.8-1.6-6.4-5-10.7-5.9c-3.8-0.8-9.1,0.4-12.2,2.8c-3.1,2.4-5.1,4.9-9,5.9     c-4.3,1.1-8.5,0.3-12.9,0.4c-4.5,0.1-8.7,0.6-12.7,3c-3.4,2.1-5,5.4-7.5,8l-2.2,0.4c-7.7-3.9-14.8-9-21-14.8l0.8-0.8     c2.9-0.6,6.4-4.1,7.2-6.8c1.1-4-0.6-7-2.3-10.4c-1.1-2.2-2.3-4.2-0.8-6.1c1.5-2,4.8-2.7,6.9-3.8l0.3-0.3c0.9,0.9,2.1,1.7,3.5,2.5     c13.7,7.5,27.6-9.1,35.6-20C207.1,199.2,210.4,201.2,214.7,204"></path>
			<path class="st2" d="M261.6,241.6c4.1,1.9,6.6,5.7,8.5,8.3C254.9,261.3,236,268,215.6,268c-14.9,0-29-3.6-41.4-10l2.2-0.4     c2.5-2.6,4.1-5.9,7.5-8c3.9-2.4,8.1-2.9,12.7-3c4.4-0.1,8.6,0.7,12.9-0.4c3.9-1,5.9-3.6,9-5.9c3.1-2.4,8.3-3.6,12.2-2.8     c4.3,0.9,6.8,4.3,10.7,5.9C248.3,246.4,254.2,238.3,261.6,241.6"></path>
			<path class="st3" d="M250.4,92.7c3.3,1.4,6.5,3.1,9.7,5c-15.7,22.9-30.8,40.5-49.1,58l-0.9-1c-17.6-15.8-32.1-33.3-46.2-52.8l0,0     c2.9-2.1,5.9-4,9.1-5.6l0.2,0.5c4.5,2.8,7.9,6.2,13.5,6.6c6.2,0.5,11.8-4.2,17.6-1.2c6.1,3.2,12.1,8.1,19.3,5     c3.1-1.3,5.2-3.8,7.9-5.5c2.4-1.5,4.5-0.9,7.3-1.1c3.1-0.2,6.8-1.6,9-4.1c0.8-1,1.3-2.8,2.3-3.1L250.4,92.7z"></path>
			<path class="st2" d="M250.4,92.7l-0.3,0.8c-1,0.2-1.4,2.1-2.3,3.1c-2.1,2.5-5.8,3.9-9,4.1c-2.8,0.2-4.9-0.5-7.3,1.1     c-2.8,1.8-4.8,4.2-7.9,5.5c-7.1,3.1-13.2-1.8-19.3-5c-5.8-3-11.4,1.7-17.6,1.2c-5.7-0.5-9.1-3.8-13.5-6.6l-0.2-0.5     c12.7-6.8,26.8-10.3,42.6-10.3C228.6,86.1,239.8,88.1,250.4,92.7"></path>
			<path class="st2" d="M183,179.8l-0.5,0.5c-1,1.6-15.2-2.1-19.6,1.5c-9.8,8,10.6,9.2,15.4,9.1c-8.2,4.1-21.9,15.6-13.1,23.9     l-0.3,0.3c-2.1,1.1-5.4,1.8-6.9,3.8c-1.4,1.9-0.2,3.9,0.8,6.1c1.7,3.4,3.5,6.4,2.3,10.4c-0.8,2.8-4.3,6.3-7.2,6.8l-0.8,0.8     c-3.6-3.4-7-7.1-10-11.1c-11.6-15.3-18.5-34.4-18.5-55c0-10.9,1.6-21,4.8-30.3l1.3,0.2c3,0.4,5.8,1.6,7.8,4     c2.7,3.3,3.5,8.7,8.2,10.1c3.7,1.2,5.7-1.6,8.1-3.8c1-0.9,1.8-1.4,2.8-2.1c0.4-0.3,1.3-0.6,1.3-0.7l0.8-0.7     C167.2,163.3,173.6,170.8,183,179.8"></path>
			<path class="st3" d="M159,154.4c0,0.1-0.9,0.4-1.3,0.7c-1.1,0.7-1.9,1.2-2.8,2.1c-2.4,2.2-4.4,5-8.1,3.8     c-4.6-1.4-5.4-6.8-8.2-10.1c-2-2.4-4.8-3.6-7.8-4l-1.3-0.2c2.5-7.2,5.9-14,10.4-20.3l0.6,0.4c3.8,7.8,9.8,14.3,15,21.2     c0.3,0.4,0.6,0.8,0.9,1.2c1.2,1.6,2.4,3.1,3.5,4.5L159,154.4z"></path>
			<path class="st0" d="M304.5,12.7c17.2,8.3,20.2,35.3,4.5,46.5c-1.5,1.1-3.5,2.1-5.1,3.4l-0.7-0.2c-3.4-1.9-8.2-6.1-8.8-10.1     l0.4-0.7c4.3,0,7.6-1.8,7.8-6.6c0.2-4.1-1.8-8-6.8-6.6l-0.3,0.2c-2,1.1-4.7,1.8-6.1-0.6c-1.9-3.3,1.3-7.8,0.5-11.3     c-1.5-6.4-12.6-5.2-17.8-5.2l-1.7-0.2c0.7-5.7,3.4-7.7,7.8-9.8C285.8,7.9,297,9,304.5,12.7"></path>
		</g>
		<path class="st0" d="M146,40.7c0.1,1.1,1,2,2.2,1.9c1.1-0.1,2-1,1.9-2.2c-0.1-1.1-1-2-2.2-1.9C146.8,38.6,146,39.5,146,40.7"></path>
		<path class="st0" d="M277.2,39.5c-0.1,1.2-1.1,2.1-2.2,2c-1.2-0.1-2.1-1.1-2-2.2s1.1-2,2.2-2C276.4,37.4,277.3,38.4,277.2,39.5"></path>
	</g>
	<g>
		<g>
			<path class="st4" d="M20.3,310.6c-4.8-0.9-14,2.2-19.4,3.5c-0.7,7.8,2,15.5,2.7,23.2c2.5-0.6,5.4-0.9,8-1.7     c-0.3,4-3.1,8.9-4.2,12.8c-1.6,5.5-1.6,10.9-1.5,16.7c0.1,8.2,2.4,16,9.3,21.1c5.6,4.2,12.8,1.2,15.2-5.2     c3.2-8.7-0.6-16.1-2.4-24.4c-1.3-6.2-3.4-12.7-1.1-18.7 M100.6,377c0,4.2-0.7,21.4-0.7,21.4s10.7,0,13.4,0.1     c3.7,0.2,10.5,0.3,10.5,0.3c-0.2-4-0.4-5.8-0.3-8.9c8.1,5,17.3,8.8,26.8,10c6.7,0.9,21.5,1.8,23.9-5.6     c8.2-25.4-32.8-8.4-45.8-18.5"></path>
			<path class="st5" d="M134.6,375.2c-1.3-26.9-0.7-46.6-2.6-81.2c-0.8-14.5-1.3-28.9-2.5-43.4l-1.6-18.5l0-0.2l-14.2,0.2l-19.3,0.3     h-0.1c0,0.8,0.1,2.6,0.1,3.5c0,36.8-38.1,70.8-73.7,71.2c-0.1,1.1,0,2.2,0.1,3.3c0.6,5.3,3.1,11.3,4.4,16c1,3.5,1.6,7.3,2.6,10.8     c0.3,1.2,0.7,2.3,1.2,3.4c2.1,4.8,3.7,3,8.8,2.3c5.1-0.7,10.2-0.9,15.3-2.5c8.8-2.7,18.4-7.8,26.3-12.6     c2.3-1.4,17.3-13.3,17.3-15.7c0-0.1,0-0.2-0.1-0.2 M97.2,375.9c0,0,1.3,0,3.4,0c0.3,0,0.6,0,1,0c5.4-0.1,14.4-0.1,18.3-0.1     c1.9,0,5.4-0.1,8.5-0.3c1.9-0.1,3.7-0.2,4.7-0.2c0.6,0,1,0,1,0"></path>
			<path class="st6" d="M73.4,232.2C73.3,231.9,73.3,232.5,73.4,232.2c-2.5-50.7,1.8-104.8,38.5-146.6c2.1-2.4,5-4.4,7.8-5.4     c0.9-0.3,1.9-0.7,2.8-1c1.5-0.8,3.8-1.5,5.3-1.5c1-0.1,1.9-0.2,2.8-0.2c5-0.2,9.5,0.6,14,2.5c0.4,0.3,0.7,0.6,1.1,0.8     c3.5,2.8,6.9,5.6,9.6,9.1c2.8,4.1,5.6,8.1,8.5,12.1c14.1,19.5,28.7,37,46.2,52.8 M73.9,232.2h20.5h19.3H128h15"></path>
			<path class="st7" d="M120.7,63.6c0.8,0.8,1.5,1.7,2,2.7c1.4,3.4,0.6,6.6,0.7,10.1"></path>
			<path class="st5" d="M152.6,23.6c-0.6-5.9-3.3-8-7.6-10.1c-7.3-3.5-18.1-2.5-25.5,1.1c-1.6,0.8-3,1.7-4.4,2.7 M115.1,17.4     c-0.4,0.3-0.7,0.6-1.1,0.9 M114,18.3c-11.6,10.5-12.3,31.9,1.1,41.4c1.7,1.2,3.9,2.4,5.6,3.9"></path>
			<path class="st5" d="M127.8,39.6c-4.8-1.3-6.7,2.4-6.6,6.4c0.2,4.6,3.4,6.4,7.5,6.4"></path>
			<path class="st5" d="M113,19c-4.2,2.2-8.5,3.2-12.6,0.1c-4.8-3.7-4.4-10.2-0.6-14.4c2.5-2.8,7.4-4.6,11.1-3.6     c3.7,1,5.9,4.9,6.3,8.4c0.2,2.4,0.1,5.6-2,7.9c0,0,0,0,0,0c-0.3,0.3-0.7,0.6-1.1,0.9c0,0,0,0,0,0C113.7,18.6,113.4,18.8,113,19"></path>
			<path class="st5" d="M129.2,53.1c-0.5,3.9-5.2,8-8.5,9.8"></path>
			<path class="st5" d="M94.4,232.2v0.3c0,1.1,0,2.3,0,3.5c0.1,22.8,1.5,48.7,2.5,71.1c0.1,1.7,0.1,3.5,0.2,5.2     c0.6,21-0.7,41.9-0.7,62.9"></path>
			<path class="st4" d="M400.2,310.6c4.8-0.9,14,2.2,19.4,3.5c0.7,7.8-2,15.5-2.7,23.2c-2.5-0.6-5.4-0.9-8-1.7     c0.3,4,3.1,8.9,4.2,12.8c1.6,5.5,1.6,10.9,1.5,16.7c-0.1,8.2-2.4,16-9.3,21.1c-5.6,4.2-12.8,1.2-15.2-5.2     c-3.2-8.7,0.6-16.1,2.4-24.4c1.3-6.2,3.4-12.7,1-18.7 M319,376.8c0,4.2,3.3,18.3,0.7,21c-1.7,1.8-10.7,0.8-13.4,0.9     c-3.7,0.2-6.5,0.2-10.2-0.1c0.7-2.9,0.1-5.8,0-8.9c-8.1,5-17.3,8.8-26.8,10c-6.8,0.9-18.6,2.4-23.4-3.8     c-12.5-16.3,31.2-19.9,40-20.4c1-0.1,1.5-0.1,1.5-0.1"></path>
			<path class="st8" d="M326.2,233.5c0,0.8-0.1,1.7-0.1,2.5c0,36.8,38.1,70.8,73.7,71.2c0.1,1.1,0,2.2-0.1,3.3     c-0.6,5.3-3,11.3-4.4,16c-1,3.5-1.5,7.3-2.6,10.8c-0.3,1.2-0.7,2.3-1.2,3.4c-2.1,4.8-3.7,3-8.8,2.3c-5.1-0.7-10.2-0.9-15.3-2.5     c-8.8-2.7-18.4-7.8-26.3-12.6c-2.3-1.4-17.3-13.3-17.3-15.7c0-0.1,0-0.2,0.1-0.2 M285.9,375.2c1.3-26.9,0.9-46.6,2.7-81.2     c0.7-14.5,1.7-28.9,2.9-43.4c0.4-4.9,2.1-18.3,2.1-18.3 M326.1,232.2c0,1.2,0,2.5,0,3.8c-0.1,22.8-1.5,48.7-2.5,71.1     c-0.1,1.7-0.1,3.5-0.2,5.2c-0.6,21,0.7,41.9,0.7,62.9 M323.3,375.9c0,0-0.4,0-1.1,0c-0.8,0-1.9,0-3.2,0     c-5.4-0.1-14.4-0.1-18.3-0.1c-3.1,0-10.5-0.3-13.2-0.5c-0.6,0-1,0-1,0"></path>
		</g>
		<polyline class="st7" points="346.8,232.2 326.1,232.2 293.6,232.2 287.9,232.2   "></polyline>
		<g>
			<path class="st4" d="M153.9,242.4c2.9-0.6,6.4-4.1,7.2-6.8c1.1-4-0.6-7-2.3-10.4c-1.1-2.2-2.3-4.2-0.8-6.1c1.5-2,4.8-2.7,6.9-3.8     "></path>
			<path class="st5" d="M204.3,197.3c-8,10.9-22,27.5-35.6,20c-1.4-0.8-2.6-1.6-3.5-2.5c-8.8-8.3,4.9-19.8,13.1-23.9     c-4.8,0.1-25.2-1.1-15.4-9.1c4.4-3.6,18.6,0.1,19.6-1.5"></path>
			<path class="st4" d="M257,202.7c5.9,2.1,10.4-2.8,14.8-5.5c4.5-2.8,10.5-1.2,12.8,3.4c1.4,2.6,1.9,4,4.7,5c2.1,0.8,2.9,0.2,2.8,3     c-0.2,3-1,4.5,0.8,7.4c0.8,1.2,1.8,2.7,3.3,2.8"></path>
			<path class="st8" d="M220.4,199.7c8.4,8.9,17.9,25.2,31.5,17.7c7.5-4.2,7.4-9.6,4.3-14.5c-3.1-5-9.4-9.6-13.9-11.9     c4.8,0.1,25.2-1.1,15.4-9.1c-4.3-3.5-18-1.1-18.9-1"></path>
			<path class="st4" d="M139.9,126.2c-0.1,0.1-0.1,0.2-0.2,0.2c-4.4,6.4-7.9,13.1-10.4,20.3c-3.2,9.4-4.8,19.4-4.8,30.3     c0,20.7,6.9,39.8,18.5,55.1c3,4,6.4,7.7,10,11.1c6.2,5.9,13.3,10.9,21,14.9c12.4,6.4,26.5,10,41.4,10c20.5,0,39.3-6.8,54.5-18.2     c6.7-5,12.7-11,17.8-17.7c3.2-4.2,6-8.7,8.5-13.4c6.5-12.5,10.1-26.7,10.1-41.8c0-10.8-1.6-20.8-4.7-30     c-3.7-10.9-9.5-20.8-17.5-29.5 M259.7,97.4c0,0,0.4,0.4,0.4,0.3c-3.2-1.9-6.4-3.6-9.7-5c-10.6-4.6-21.9-6.7-34.9-6.7     c-15.7,0-29.9,3.5-42.6,10.3c-3.1,1.7-6.1,3.5-9.1,5.6 M130.7,146.9c3,0.4,5.8,1.6,7.8,4c2.7,3.3,3.5,8.7,8.2,10.1     c3.7,1.2,5.7-1.6,8.1-3.8c1-0.9,1.8-1.4,2.8-2.1c0.4-0.3,1.3-0.6,1.3-0.7c0,0-0.1-0.1-0.2-0.1 M176.3,257.6     c2.6-2.6,4.1-5.9,7.5-8c3.9-2.4,8.1-2.9,12.7-3c4.4-0.1,8.6,0.7,12.9-0.4c3.9-1,5.9-3.6,9-5.9c3.1-2.4,8.3-3.6,12.2-2.8     c4.3,0.9,6.8,4.3,10.7,5.9c7.1,3,13-5.1,20.4-1.8c4.1,1.9,6.6,5.7,8.5,8.3c0,0.1,0.1,0.1,0.1,0.1"></path>
			<path class="st7" d="M235.7,183.5c0.4-0.4,0.8-0.8,1.3-1.2c0.5-0.5,1.1-1.1,1.6-1.6c0,0,0,0,0,0c10.1-10.1,17.7-21.2,26.5-32.7     c1.1-1.5,2.5-3.4,4-5.6c5.4-7.8,12.3-18.8,15.2-24.9 M347.3,232.2C347.3,231.9,347.3,232.5,347.3,232.2     c1.8-27.7,1.1-55.6-5.7-83.5c0-1.5-1-2.3-1-3.8c-3.2-11-5.9-21.5-10.8-31.4c-0.9-1.8-1.9-3.5-2.9-5.3c-3.1-5.3-6.9-9.9-10.7-15.3     c-3.1-3.1-5.3-6.1-8.4-8.4c-2.5-1.7-5.1-3.1-7.6-4.1c-4.4-1.8-8.9-2.8-13.8-2.8c-1.1,0-2.7,0.4-4.1,0.6c-0.5,0.1-0.9,0.1-1.3,0.1     c-5.5,0.6-9.1,4.7-12.7,8.3c-1.9,1.9-3.7,4.1-5.2,6.4c-1,1.5-2.1,3.1-3.1,4.6c-15.7,22.9-30.8,40.5-49.1,58     c-8.4,8-17.4,16-27.5,24.5 M216.1,203.7c1.4-1.4,2.7-2.8,4.1-4.2c3.3-3.5,6.6-7.1,9.9-10.3c2.1-2,4.2-3.9,6.2-6     c0.2-0.2,0.4-0.5,0.7-0.8c0.9-1.2,1.9-2.9,1.6-1.6c0,0,0,0,0,0.1 M215.3,204.4c-5.3-3.5-10.8-6.7-15.9-10.4     c-5.7-4.1-10.9-8.9-15.9-13.8"></path>
			<path class="st4" d="M301.3,147.2c-3.4,1.9-7,2.4-10.2,5.1c-2.6,2.3-4.4,5.3-8.3,3.9c-4.5-1.6-3.4-6-5.3-9.4     c-1.7-3-4.7-2.8-7.3-4.2 M173.2,96.8c4.5,2.8,7.8,6.2,13.5,6.6c6.2,0.5,11.8-4.2,17.6-1.2c6.1,3.2,12.1,8.1,19.3,5     c3.1-1.3,5.2-3.8,7.9-5.5c2.4-1.5,4.5-0.9,7.3-1.1c3.1-0.2,6.8-1.6,9-4.1c0.8-1,1.3-2.8,2.3-3.1"></path>
			<path class="st6" d="M183.5,180.3c-0.2-0.2-0.4-0.3-0.5-0.5c-9.4-8.9-15.8-16.5-23.2-26c-1.1-1.5-2.3-3-3.5-4.5     c-0.3-0.4-0.6-0.8-0.9-1.2c-5.2-6.9-11.9-14.7-15.6-22.5"></path>
			<path class="st7" d="M156.4,53.9c0,0,0,0.1,0,0.2c0.3,1.5,1.6,10.5-2.6,14.1c-4.6,3.9-11.5,0.6-11.5,9.2 M152.8,23.9     c1.5,13.3,0.5,16.8,5.8,21.2c1.9,1.6,4.3,1.4,3.8,5.4c-0.2,2-2,3.3-3.5,3.4c-0.7,0-1.4-0.2-2.2-0.1"></path>
			<path class="st4" d="M145.5,56.3c3.2,3.4,6.7,4.3,11.1,4.7"></path>
			<path class="st5" d="M266.5,53.2c0,0,0,0.1,0,0.2c-0.3,1.5-1.7,10.8,2.7,14.5c4.7,4.1,11.8,0.7,11.8,9.5 M270.3,22.3     c-1.5,13.7-0.5,17.3-6,21.8c-2,1.6-4.4,1.5-3.9,5.6c0.2,2,2,3.4,3.6,3.5c0.7,0,1.5-0.2,2.3-0.1 M128.1,39.8     c1.9,1,4.6,1.7,5.9-0.6c1.9-3.2-1.3-7.5-0.5-10.9c1.4-6.2,12.3-5,17.3-5"></path>
			<path class="st4" d="M277.8,55.6c-3.3,3.5-6.9,4.4-11.5,4.8"></path>
			<path class="st5" d="M303.3,63.2c-0.9,0.8-1.6,1.7-2,2.8c-1.4,3.5-0.6,8.4-0.7,12.1"></path>
			<path class="st4" d="M295.7,38.6c-2,1.1-4.7,1.8-6.1-0.6c-1.9-3.3,1.3-7.8,0.5-11.3c-1.5-6.4-12.6-5.2-17.8-5.2 M294.6,52.4     c0.6,4.1,5.4,8.2,8.8,10.1 M296,38.5c5-1.4,6.9,2.5,6.8,6.6c-0.2,4.7-3.5,6.6-7.8,6.6 M270.5,21.9c0-0.2,0-0.4,0.1-0.5     c0.7-5.7,3.4-7.8,7.8-9.9c7.5-3.6,18.6-2.5,26.2,1.2c17.2,8.3,20.2,35.3,4.5,46.5c-1.5,1.1-3.5,2.1-5.1,3.4     c-0.2,0.2-0.4,0.4-0.7,0.6"></path>
		</g>
		<line class="st5" x1="179" y1="82.4" x2="172.9" y2="67.9"></line>
		<line class="st8" x1="201.8" y1="77.2" x2="199.6" y2="61.6"></line>
		<line class="st7" x1="224.8" y1="77.2" x2="227.2" y2="61.6"></line>
		<line class="st6" x1="246.7" y1="81.6" x2="253.5" y2="67.3"></line>
		<line class="st5" x1="247.6" y1="277.7" x2="253.3" y2="292.4"></line>
		<line class="st8" x1="224.7" y1="282.2" x2="226.4" y2="297.8"></line>
		<line class="st7" x1="201.7" y1="281.5" x2="198.8" y2="297"></line>
		<line class="st6" x1="179.9" y1="276.4" x2="172.7" y2="290.4"></line>
	</g>
</g>
</svg>
